<html>
<head>
<meta charset="UTF-8">
<meta name="viewport" content="width=device-width, initial-scale=1.0"/>

<style>
.comment
{
    padding-left: 20px;
    margin-top: 4px;
    margin-right: 4px;
    margin-bottom: 4px;
    border: 2px #000 solid;
}
.submission
{
    border: 4px #00f solid;
    padding-left: 20px;
}
.hidden
{
    display: none;
}
</style>
</head>
<body><div class="submission" id="t3_70dbma">
    <p class="userinfo">
        <a href="https://www.reddit.com/u/Ed_ButteredToast">Ed_ButteredToast</a>
        <span class="score"> | 24 points</span>
        <span class="timestamp"> | Sep 15 2017 22:41:39</span>
    </p>
    <strong>[MUSIC] Lorde - 'Homemade Dynamite (Remix) [feat. Khalid, Post Malone & SZA] - Single' [FLAC] [16bit 44.1kHz 2CH] [MP3 320kbps] [25.4MB/8.53MB]</strong>
    <p><h6>https://itunes.apple.com/us/album/homemade-dynamite-remix-feat-khalid-post-malone-sza-single/id1281137055</h6>
<h1><a href="http://links.snahp.it/43_">LINK HERE</a></h1>
<p><strong>Note</strong>: <em>Password to the Snahp.it link</em> <strong><em>and</em></strong> <em>the rar files is the same and is the name of the artist</em> <strong><em>"lorde"</em></strong> <em>spelled backwards e.g WEBSITE = ETISBEW. Also when you access the MEGA link, replace "xxxx" with "mega". There are 2 folders, one for FLAC with 2 rar files and one for MP3 with 2 rar files. Use the password (same for all parts) and extracting part 1 will automatically extract the other part too and in the end you'll be left with 1 FLAC file and 1 MP3 file.</em></p>
<h1>Link Encoded in Base64</h1>
<p>1= <code>aHR0cHM6Ly94eHh4Lm56LyNGIVFicEFuS0lK</code></p>
<p>2= <code>IXNyMHUtNmNlUmZlUkhSelo4WW5idXc</code></p>
<p><strong>How to decode?</strong></p>
<p><em>Go to https://www.base64decode.org and paste 1 and 2 (without any space) where it says "Type or (paste) here..." and click decode. You'll receive a link in the lower box. In that link, replace xxxx with MEGA.</em></p>
<h2>---</h2>
<h2>---</h2>
<h2>---</h2>
<h2>---</h2>
<h2>---</h2>
<h1><code>General</code></h1>
<p><code>Complete name                  : 01 - Homemade Dynamite (REMIX) (feat. Khalid, Post Malone &amp; SZA).flac</code></p>
<p><code>Format                         : FLAC</code></p>
<p><code>Format/Info                    : Free Lossless Audio Codec</code></p>
<p><code>File size                      : 25.4 MiB</code></p>
<p><code>Duration                       : 3mn 34s</code></p>
<p><code>Overall bit rate mode          : Variable</code></p>
<p><code>Overall bit rate               : 993 Kbps</code></p>
<p><code>Album                          : Homemade Dynamite (Remix)</code></p>
<p><code>Album/Performer                : Lorde</code></p>
<p><code>Part                           : 1</code></p>
<p><code>Part/Total                     : 1</code></p>
<p><code>Track name                     : Homemade Dynamite (Remix) (feat. Khalid, Post Malone &amp; SZA)</code></p>
<p><code>Track name/Position            : 01</code></p>
<p><code>Track name/Total               : 01</code></p>
<p><code>Performer                      : Lorde</code></p>
<p><code>Composer                       : Ella Yelich-O'connor, Tove Lo, Jakob Jerlström &amp; Ludvig Söderberg</code></p>
<p><code>Label                          : ℗ 2017 Universal Music New Zealand Limited</code></p>
<p><code>Genre                          : Alternative</code></p>
<p><code>Recorded date                  : 2017-09-16T07:00:00Z</code></p>
<p><code>Cover                          : Yes</code></p>
<p><code>Cover type                     : Cover (front)</code></p>
<p><code>Cover MIME                     : image/jpeg</code></p>
<p><code>Featured                       : Khalid, Post Malone &amp; SZA</code></p>
<h1><code>Audio</code></h1>
<p><code>Format                         : FLAC</code></p>
<p><code>Format/Info                    : Free Lossless Audio Codec</code></p>
<p><code>Duration                       : 3mn 34s</code></p>
<p><code>Bit rate mode                  : Variable</code></p>
<p><code>Bit rate                       : 977 Kbps</code></p>
<p><code>Channel(s)                     : 2 channels</code></p>
<p><code>Sampling rate                  : 44.1 KHz</code></p>
<p><code>Bit depth                      : 16 bits</code></p>
<p><code>Replay gain                    : -10.14 dB</code></p>
<p><code>Replay gain peak               : 0.999969</code></p>
<p><code>Stream size                    : 25.0 MiB (98%)</code></p>
<p><code>Writing library                : libFLAC 1.3.1 (UTC 2014-11-25)</code></p>
<h2>---</h2>
<hr>
<h1><code>General</code></h1>
<p><code>Complete name                  : 01 - Homemade Dynamite (REMIX) (feat. Khalid, Post Malone &amp; SZA).mp3</code></p>
<p><code>Format                         : MPEG Audio</code></p>
<p><code>File size                      : 8.58 MiB</code></p>
<p><code>Duration                       : 3mn 34s</code></p>
<p><code>Overall bit rate mode          : Constant</code></p>
<p><code>Overall bit rate               : 320 Kbps</code></p>
<p><code>Album                          : Homemade Dynamite (Remix)</code></p>
<p><code>Album/Performer                : Lorde</code></p>
<p><code>Part/Position                  : 1</code></p>
<p><code>Part/Total                     : 1</code></p>
<p><code>Track name                     : Homemade Dynamite (Remix) [feat. Khalid, Post Malone &amp; SZA]</code></p>
<p><code>Track name/Position            : 01</code></p>
<p><code>Track name/Total               : 01</code></p>
<p><code>Performer                      : Lorde</code></p>
<p><code>Composer                       : Ella Yelich-O'connor, Tove Lo, Jakob Jerlström &amp; Ludvig
 Söderberg</code></p>
<p><code>Genre                          : Alternative</code></p>
<p><code>Recorded date                  : 2017-09-16T07:00:00Z</code></p>
<p><code>Writing library                : LAME3.82</code></p>
<p><code>Copyright                      : ℗ 2017 Universal Music New Zealand Limited</code></p>
<p><code>Cover                          : Yes</code></p>
<p><code>Cover type                     : Cover (front)</code></p>
<p><code>Cover MIME                     : image/jpeg</code></p>
<p><code>Featured                       : Khalid, Post Malone &amp; SZA</code></p>
<h1><code>Audio</code></h1>
<p><code>Format                         : MPEG Audio</code></p>
<p><code>Format version                 : Version 1</code></p>
<p><code>Format profile                 : Layer 3</code></p>
<p><code>Duration                       : 3mn 34s</code></p>
<p><code>Bit rate mode                  : Constant</code></p>
<p><code>Bit rate                       : 320 Kbps</code></p>
<p><code>Channel(s)                     : 2 channels</code></p>
<p><code>Sampling rate                  : 44.1 KHz</code></p>
<p><code>Compression mode               : Lossy</code></p>
<p><code>Stream size                    : 8.18 MiB (95%)</code></p>
<p><code>Writing library                : LAME3.82</code></p></p>
    <p class="toolbar">
        <a href="https://www.reddit.com/r/megalinks/comments/70dbma">permalink</a>
    </p>
</div>

</body>

<script>
function toggle_collapse(comment_div)
{
    var button = comment_div.getElementsByClassName("toggle_hide_button")[0];
    var collapsible = comment_div.getElementsByClassName("collapsible")[0];
    if (collapsible.classList.contains("hidden"))
    {
        collapsible.classList.remove("hidden");
        button.innerText = "[-]";
    }
    else
    {
        collapsible.classList.add("hidden");
        button.innerText = "[+]";
    }
}
</script>
</html>
